<svg id="eGeT3fwtQRB1" xmlns="http://www.w3.org/2000/svg" xmlns:xlink="http://www.w3.org/1999/xlink" viewBox="0 0 18 19" shape-rendering="geometricPrecision" text-rendering="geometricPrecision"><defs><filter id="eGeT3fwtQRB16-filter" x="-150%" width="400%" y="-150%" height="400%"><feGaussianBlur id="eGeT3fwtQRB16-filter-drop-shadow-0-blur" in="SourceAlpha" stdDeviation="0,0"/><feOffset id="eGeT3fwtQRB16-filter-drop-shadow-0-offset" dx="0" dy="0" result="tmp"/><feFlood id="eGeT3fwtQRB16-filter-drop-shadow-0-flood" flood-color="#b3b3b3"/><feComposite id="eGeT3fwtQRB16-filter-drop-shadow-0-composite" operator="in" in2="tmp"/><feMerge id="eGeT3fwtQRB16-filter-drop-shadow-0-merge"><feMergeNode id="eGeT3fwtQRB16-filter-drop-shadow-0-merge-node-1"/><feMergeNode id="eGeT3fwtQRB16-filter-drop-shadow-0-merge-node-2" in="SourceGraphic"/></feMerge></filter></defs><g><path d="M9,0.5c-4.970563,0-9,4.029437-9,9s4.029437,9,9,9s9-4.029437,9-9-4.029437-9-9-9Z" opacity="0.3"/><path d="M9,0C4.029437,0,0,4.029437,0,9s4.029437,9,9,9s9-4.029437,9-9-4.029437-9-9-9Z" fill="#a0c852"/><g transform="translate(0 1.177635)"><rect width="8.410435" height="8.03782" rx="1" ry="1" transform="translate(4.794783 5.48109)" fill="#b3b3b3" stroke-width="0"/><rect width="1.8" height="1.9" rx="0" ry="0" transform="matrix(.578433 0 0 1.379415 8.479411 4.170646)" fill="#b3b3b3" stroke-width="0"/><rect width="1.8" height="1.9" rx="0.9" ry="0.9" transform="matrix(.578433 0 0 1.379415 12.684628 7.499999)" fill="#b3b3b3" stroke-width="0"/><rect width="1.8" height="1.9" rx="0.9" ry="0.9" transform="matrix(.578433 0 0 1.379415 4.274193 7.499999)" fill="#b3b3b3" stroke-width="0"/><ellipse rx="1.206172" ry="1.066864" transform="matrix(1 0 0 1.146637 9.000001 3.845671)" fill="#b3b3b3" stroke-width="0"/><ellipse rx="1.206172" ry="1.066864" transform="matrix(1 0 0 1.146637 9.000001 3.845671)" fill="#b3b3b3" stroke-width="0"/><ellipse rx="0.75" ry="0.654087" transform="matrix(1 0 0 1.146637 9 3.845672)" fill="#b3b3b3" stroke-width="0"/><ellipse rx="0.75" ry="0.654087" transform="matrix(1 0 0 1.146637 7.043829 8.25)" fill="#b3b3b3" stroke-width="0"/><ellipse rx="0.75" ry="0.654087" transform="matrix(1 0 0 1.146637 10.956173 8.25)" fill="#b3b3b3" stroke-width="0"/><ellipse rx="1.956172" ry="0.73586" transform="matrix(1 0 0 0.499356 9.000001 11.732797)" fill="#b3b3b3" stroke-width="0"/></g></g><g transform="translate(0 0.929363)" filter="url(#eGeT3fwtQRB16-filter)"><rect width="8.410435" height="8.03782" rx="1" ry="1" transform="translate(4.794783 5.48109)" fill="#fff" stroke-width="0"/><rect width="1.8" height="1.9" rx="0" ry="0" transform="matrix(.578433 0 0 1.379415 8.479411 4.170646)" fill="#fff" stroke-width="0"/><rect width="1.8" height="1.9" rx="0.9" ry="0.9" transform="matrix(.578433 0 0 1.379415 12.684628 7.499999)" fill="#fff" stroke-width="0"/><rect width="1.8" height="1.9" rx="0.9" ry="0.9" transform="matrix(.578433 0 0 1.379415 4.274193 7.499999)" fill="#fff" stroke-width="0"/><ellipse rx="1.206172" ry="1.066864" transform="matrix(1 0 0 1.146637 9.000001 3.845671)" fill="#fff" stroke-width="0"/><ellipse rx="1.206172" ry="1.066864" transform="matrix(1 0 0 1.146637 9.000001 3.845671)" fill="#fff" stroke-width="0"/><ellipse rx="0.75" ry="0.654087" transform="matrix(1 0 0 1.146637 9 3.845672)" fill="#a0c852" stroke-width="0"/><ellipse rx="0.75" ry="0.654087" transform="matrix(1 0 0 1.146637 7.043829 8.25)" fill="#a0c852" stroke-width="0"/><ellipse rx="0.75" ry="0.654087" transform="matrix(1 0 0 1.146637 10.956173 8.25)" fill="#a0c852" stroke-width="0"/><ellipse rx="1.956172" ry="0.73586" transform="matrix(1 0 0 0.499356 9.000001 11.732797)" fill="#a0c852" stroke-width="0"/></g></svg>
